{"title":"Quills 2000 DVD9rip English Klam","uid":5882170,"size":1895497624,"categoryP":"video","categoryS":"movies","magnet":"?xt=urn:btih:f41d586ce59d3c660c8bbbd747a00500c2819eaa&amp;dn=Quills+2000+DVD9rip+English+Klam&amp;tr=udp%3A%2F%2Ftracker.openbittorrent.com%3A80&amp;tr=udp%3A%2F%2Fopen.demonii.com%3A1337&amp;tr=udp%3A%2F%2Ftracker.coppersurfer.tk%3A6969&amp;tr=udp%3A%2F%2Fexodus.desync.com%3A6969","seeders":1,"leechers":2,"uploader":"Klambake","files":-1,"time":1286872000,"description":"With: Geoffrey Rush, Kate Winslet en Joaquin Phoenix\n\nThe infamous writer, The Marquis de Sade of 18th Century France, is imprisoned for unmentionable activities at Charanton Insane Asylumn. He manages to befriend the young Abbe de Coulmier, who run's the asylumn, along with a beautiful laundress named Madeline. Things go terribly wrong when the Abbe finds out that the Marquis' books are being secretly published. Emperor Napolean contemplates sending Dr. Royer-Collard to oversee the asylumn, a man famed for his torturous punishments. It could mean the end of Charanton and possibly the Marquis himself.\n\nGeneral:\n\nComplete name                    : Klambake\\Quills\\Quills.avi\nFormat                           : AVI\nFormat/Info                      : Audio Video Interleave\nFile size                        : 1.76 GiB\nDuration                         : 1h 59mn\nOverall bit rate                 : 2 123 Kbps\n\nVideo:\n\nFormat                           : MPEG-4 Visual\nFormat profile                   : Simple@L3\nFormat settings, BVOP            : No\nFormat settings, QPel            : No\nFormat settings, GMC             : No warppoints\nFormat settings, Matrix          : Default (H.263)\nCodec ID                         : XVID\nCodec ID/Hint                    : XviD\nDuration                         : 1h 59mn\nBit rate                         : 1 728 Kbps\nWidth                            : 720 pixels\nHeight                           : 576 pixels\nDisplay aspect ratio             : 5:4\nFrame rate                       : 25.000 fps\nStandard                         : PAL\nColor space                      : YUV\nChroma subsampling               : 4:2:0\nBit depth                        : 8 bits\nScan type                        : Progressive\nBits/(Pixel*Frame)               : 0.167\nStream size                      : 1.44 GiB (81%)\nWriting library                  : XviD 1.1.2 (UTC 2006-11-01)\n\nAudio:\n\nFormat                           : AC-3\nFormat/Info                      : Audio Coding 3\nMode extension                   : CM (complete main)\nCodec ID                         : 2000\nDuration                         : 1h 59mn\nBit rate mode                    : Constant\nBit rate                         : 384 Kbps\nChannel(s)                       : 6 channels\nChannel positions                : Front: L C R, Side: L R, LFE\nSampling rate                    : 48.0 KHz\nBit depth                        : 16 bits\nStream size                      : 327 MiB (18%)\nAlignment                        : Aligned on interleaves\nInterleave, duration             : 32 ms (0.80 video frame)\nInterleave, preload duration     : 352 ms","torrent":{"xt":"urn:btih:f41d586ce59d3c660c8bbbd747a00500c2819eaa","amp;dn":"Quills+2000+DVD9rip+English+Klam","amp;tr":["udp%3A%2F%2Ftracker.openbittorrent.com%3A80","udp%3A%2F%2Fopen.demonii.com%3A1337","udp%3A%2F%2Ftracker.coppersurfer.tk%3A6969","udp%3A%2F%2Fexodus.desync.com%3A6969"],"infoHash":"f41d586ce59d3c660c8bbbd747a00500c2819eaa","infoHashBuffer":{"type":"Buffer","data":[244,29,88,108,229,157,60,102,12,139,187,215,71,160,5,0,194,129,158,170]},"announce":[],"urlList":[]}}